<svg width="96" height="96" xmlns="http://www.w3.org/2000/svg" xmlns:xlink="http://www.w3.org/1999/xlink" xml:space="preserve" overflow="hidden"><defs><clipPath id="clip0"><rect x="515" y="395" width="96" height="96"/></clipPath></defs><g clip-path="url(#clip0)" transform="translate(-515 -395)"><path d="M571 406C571 410.418 567.418 414 563 414 558.582 414 555 410.418 555 406 555 401.582 558.582 398 563 398 567.418 398 571 401.582 571 406Z" fill="#4472C4"/><path d="M584.8 447.2 579.2 423.4C579 422.6 578.6 421.8 578 421.2 575.6 419.2 572.8 417.8 569.6 416.8 567.4 416.4 565.2 416 563 416 560.8 416 558.6 416.4 556.4 417 553.2 417.8 550.4 419.4 548 421.4 547.4 422 547 422.8 546.8 423.6L541.2 447.4C541.2 447.6 541 448 541 448.4 541 450.6 542.8 452.4 545 452.4 546.8 452.4 548.4 451 548.8 449.4L553 432 553 488 561 488 561 452 565 452 565 488 573 488 573 431.8 577.2 449.2C577.6 450.8 579.2 452.2 581 452.2 583.2 452.2 585 450.4 585 448.2 585 447.8 584.8 447.4 584.8 447.2Z" fill="#4472C4"/></g></svg>