<svg width="76" height="75" xmlns="http://www.w3.org/2000/svg" xmlns:xlink="http://www.w3.org/1999/xlink" xml:space="preserve" overflow="hidden"><defs><clipPath id="clip0"><rect x="887" y="121" width="76" height="75"/></clipPath></defs><g clip-path="url(#clip0)" transform="translate(-887 -121)"><path d="M61.7188 58.5938 61.7188 57.0312 58.5938 57.0312 58.5938 30.4688 61.7188 30.4688 61.7188 28.9062 64.0625 28.9062 64.0625 24.2188 61.7188 24.2188 37.5 9.375 13.2812 24.2188 10.9375 24.2188 10.9375 28.9062 13.2812 28.9062 13.2812 30.4688 16.4062 30.4688 16.4062 57.0312 13.2812 57.0312 13.2812 58.5938 7.8125 62.5 7.8125 65.625 37.5 65.625 67.1875 65.625 67.1875 62.5 61.7188 58.5938ZM25.7812 57.0312 21.0938 57.0312 21.0938 30.4688 25.7812 30.4688 25.7812 57.0312ZM35.1562 57.0312 30.4688 57.0312 30.4688 30.4688 35.1562 30.4688 35.1562 57.0312ZM36.7188 22.6562C35 22.6562 33.5938 21.25 33.5938 19.5312 33.5938 17.8125 35 16.4062 36.7188 16.4062 38.4375 16.4062 39.8438 17.8125 39.8438 19.5312 39.8438 21.25 38.4375 22.6562 36.7188 22.6562ZM44.5312 57.0312 39.8438 57.0312 39.8438 30.4688 44.5312 30.4688 44.5312 57.0312ZM53.9062 57.0312 49.2188 57.0312 49.2188 30.4688 53.9062 30.4688 53.9062 57.0312Z" fill="#4472C4" transform="matrix(1.01333 0 0 1 887 121)"/></g></svg>