<svg width="96" height="96" xmlns="http://www.w3.org/2000/svg" xmlns:xlink="http://www.w3.org/1999/xlink" xml:space="preserve" overflow="hidden"><defs><clipPath id="clip0"><rect x="577" y="395" width="96" height="96"/></clipPath></defs><g clip-path="url(#clip0)" transform="translate(-577 -395)"><path d="M633.1 406C633.1 410.418 629.518 414 625.1 414 620.682 414 617.1 410.418 617.1 406 617.1 401.582 620.682 398 625.1 398 629.518 398 633.1 401.582 633.1 406Z" fill="#7030A0"/><path d="M646.9 446.8 639.7 422C639.5 421 638.9 420.2 638.1 419.8 635.7 418.2 632.9 417.2 629.7 416.4 628.1 416.2 626.7 416 625.1 416 623.5 416 622.1 416.2 620.5 416.4 617.3 417 614.5 418.2 612.1 419.8 611.3 420.4 610.7 421 610.5 422L603.1 446.8C602.5 449 603.7 451.2 605.9 451.8 606.3 452 606.7 452 607.1 452 608.9 452 610.5 450.8 610.9 449.2L617.1 428.2 617.1 435.2 609.7 460 615.1 460 615.1 488 623.1 488 623.1 460 627.1 460 627.1 488 635.1 488 635.1 460 640.5 460 633.1 435.2 633.1 428.2 639.3 449.2C639.9 451 641.5 452 643.1 452 643.5 452 643.9 452 644.3 451.8 646.3 451.2 647.5 449 646.9 446.8Z" fill="#7030A0"/></g></svg>