<svg width="96" height="96" xmlns="http://www.w3.org/2000/svg" xmlns:xlink="http://www.w3.org/1999/xlink" xml:space="preserve" overflow="hidden"><defs><clipPath id="clip0"><rect x="429" y="393" width="96" height="96"/></clipPath></defs><g clip-path="url(#clip0)" transform="translate(-429 -393)"><path d="M493 423C493 431.837 485.837 439 477 439 468.163 439 461 431.837 461 423 461 414.163 468.163 407 477 407 485.837 407 493 414.163 493 423Z" fill="#BF9000"/><path d="M509 475 509 459C509 456.6 507.8 454.2 505.8 452.6 501.4 449 495.8 446.6 490.2 445 486.2 443.8 481.8 443 477 443 472.6 443 468.2 443.8 463.8 445 458.2 446.6 452.6 449.4 448.2 452.6 446.2 454.2 445 456.6 445 459L445 475 509 475Z" fill="#BF9000"/></g></svg>