<svg width="87" height="87" xmlns="http://www.w3.org/2000/svg" xmlns:xlink="http://www.w3.org/1999/xlink" xml:space="preserve" overflow="hidden"><defs><clipPath id="clip0"><rect x="45" y="92" width="87" height="87"/></clipPath></defs><g clip-path="url(#clip0)" transform="translate(-45 -92)"><path d="M88.5 111.756 101.55 124.897 104.087 122.359 88.5 107.406 72.55 122.631 75.0875 125.169Z" fill="#548235"/><path d="M117.5 144.472 110.25 144.472 110.25 137.222 117.5 137.222 117.5 144.472ZM117.5 155.347 110.25 155.347 110.25 148.097 117.5 148.097 117.5 155.347ZM106.625 144.472 99.375 144.472 99.375 137.222 106.625 137.222 106.625 144.472ZM106.625 155.347 99.375 155.347 99.375 148.097 106.625 148.097 106.625 155.347ZM94.8438 144.472 82.1562 144.472 82.1562 140.847 94.8438 140.847 94.8438 144.472ZM88.5 127.253C90.0406 127.253 91.2188 128.431 91.2188 129.972 91.2188 131.512 90.0406 132.691 88.5 132.691 86.9594 132.691 85.7812 131.512 85.7812 129.972 85.7812 128.431 86.9594 127.253 88.5 127.253ZM77.625 144.472 70.375 144.472 70.375 137.222 77.625 137.222 77.625 144.472ZM77.625 155.347 70.375 155.347 70.375 148.097 77.625 148.097 77.625 155.347ZM66.75 144.472 59.5 144.472 59.5 137.222 66.75 137.222 66.75 144.472ZM66.75 155.347 59.5 155.347 59.5 148.097 66.75 148.097 66.75 155.347ZM99.375 132.691 99.375 127.253 88.5 116.378 77.625 127.253 77.625 132.691 55.875 132.691 55.875 163.503 82.1562 163.503 82.1562 153.534C82.1562 150.997 83.9688 148.097 88.5 148.097 93.0312 148.097 94.8438 150.997 94.8438 153.534L94.8438 163.503 121.125 163.503 121.125 132.691 99.375 132.691Z" fill="#548235"/></g></svg>