<svg width="79" height="79" xmlns="http://www.w3.org/2000/svg" xmlns:xlink="http://www.w3.org/1999/xlink" xml:space="preserve" overflow="hidden"><defs><clipPath id="clip0"><rect x="763" y="109" width="79" height="79"/></clipPath></defs><g clip-path="url(#clip0)" transform="translate(-763 -109)"><path d="M827.138 170.398 827.138 163.814 836.807 164.637 830.356 154.713 834.306 155.775 829.656 148.681 832.528 149.043 825.698 139.111 822.192 144.229 815.214 133.531 819.674 134.091 809.083 118.447 798.492 134.083 802.953 133.523 795.703 144.649 801.833 143.003 791.802 158.589 806.615 155.799 806.615 165.929C801.743 166.036 797.2 167.098 793.654 169.369 796.945 171.081 800.426 174.019 803.603 178.948L838.708 178.948C836.059 175.582 831.936 172.636 827.138 170.398ZM821.987 144.525 819.584 148.039 816.292 142.978ZM819.337 157.338 814.589 164.637 823.896 163.814 823.896 169.073C819.666 167.474 815.235 166.469 810.729 166.086L810.729 155.799Z" fill="#548235"/><path d="M789.49 170.274 789.333 170.274 789.333 167.427 793.448 168.25 790.436 162.704 792.625 163.312 790.033 159.371 791.629 159.568 787.688 154.26 784.067 159.552 785.655 159.354 784.256 161.486 781.17 156.548 784.56 157.462 780.553 151.364 783.022 151.668 777.162 143.118 771.303 151.652 773.772 151.347 769.764 157.445 773.155 156.532 767.608 165.074 775.344 164.135 775.344 172.365C771.916 173.93 768.837 176.169 766.292 178.948L800.624 178.948C796.896 173.722 792.864 171.319 789.49 170.274ZM777.812 171.402 777.812 164.135 784.272 164.876 782.75 168.25 786.865 167.427 786.865 170.069C783.793 169.984 780.729 170.435 777.812 171.402Z" fill="#548235"/></g></svg>